<?xml version="1.0" encoding="UTF-8" standalone="no"?>
<!-- Created with Inkscape (http://www.inkscape.org/) -->

<svg
   xmlns:dc="http://purl.org/dc/elements/1.1/"
   xmlns:cc="http://creativecommons.org/ns#"
   xmlns:rdf="http://www.w3.org/1999/02/22-rdf-syntax-ns#"
   xmlns:svg="http://www.w3.org/2000/svg"
   xmlns="http://www.w3.org/2000/svg"
   xmlns:sodipodi="http://sodipodi.sourceforge.net/DTD/sodipodi-0.dtd"
   xmlns:inkscape="http://www.inkscape.org/namespaces/inkscape"
   version="1.1"
   id="svg2"
   xml:space="preserve"
   width="1133.8533"
   height="411.008"
   viewBox="0 0 1133.8533 411.008"
   sodipodi:docname="logo-manhattan.svg"
   inkscape:version="0.92.3 (2405546, 2018-03-11)"><metadata
     id="metadata8"><rdf:RDF><cc:Work
         rdf:about=""><dc:format>image/svg+xml</dc:format><dc:type
           rdf:resource="http://purl.org/dc/dcmitype/StillImage" /><dc:title></dc:title></cc:Work></rdf:RDF></metadata><defs
     id="defs6"><clipPath
       clipPathUnits="userSpaceOnUse"
       id="clipPath18"><path
         d="M 0,308.256 H 850.39 V 0 H 0 Z"
         id="path16"
         inkscape:connector-curvature="0" /></clipPath></defs><sodipodi:namedview
     pagecolor="#ffffff"
     bordercolor="#666666"
     borderopacity="1"
     objecttolerance="10"
     gridtolerance="10"
     guidetolerance="10"
     inkscape:pageopacity="0"
     inkscape:pageshadow="2"
     inkscape:window-width="1920"
     inkscape:window-height="1011"
     id="namedview4"
     showgrid="false"
     inkscape:pagecheckerboard="true"
     inkscape:zoom="0.60991175"
     inkscape:cx="270.2793"
     inkscape:cy="159.07777"
     inkscape:window-x="1920"
     inkscape:window-y="0"
     inkscape:window-maximized="1"
     inkscape:current-layer="g10" /><g
     id="g10"
     inkscape:groupmode="layer"
     inkscape:label="Logo Manhattan Investimentos"
     transform="matrix(1.3333333,0,0,-1.3333333,0,411.008)"><g
       id="g12"
       style="fill:#ffffff"
       transform="matrix(1.1868688,0,0,1.1868688,-79.455668,-28.79925)"><g
         id="g14"
         clip-path="url(#clipPath18)"
         style="fill:#ffffff"><g
           id="g20"
           transform="translate(306.1929,71.7601)"
           style="fill:#ffffff"><path
             d="m 0,0 c 0,1.61 -0.541,3.527 -3.123,3.527 -3.238,0 -4.88,-2.569 -4.88,-7.639 0,-0.742 0,-1.278 0.191,-2.561 l 0.018,-0.107 -0.044,-0.103 c -1.323,-3.163 -5.729,-7.467 -10.713,-10.466 -3.5,-2.232 -7.687,-3.797 -10.171,-3.797 -1.716,0 -2.741,0.847 -2.741,2.267 0,0.862 0.946,2.328 2.812,4.903 l 13.368,16.57 h -7.39 c -2.112,-2.567 -3.317,-3.893 -7.736,-7.934 -0.818,-0.782 -1.456,-1.391 -2.032,-1.932 -0.162,-0.142 -15.4,-13.125 -20.712,-13.125 -1.388,0 -2.153,0.739 -2.153,2.078 0,1.048 1.045,2.59 3.99,6.409 l 5.082,6.546 c 1.234,1.771 2.067,3.307 2.067,4.99 0,2.362 -1.709,3.716 -4.687,3.716 -4.081,0 -10.608,-4.746 -18.713,-10.948 l -3.65,-2.792 7.977,12.992 h -5.544 c -1.96,-2.6 -3.465,-4.017 -7.747,-7.934 -2.728,-2.609 -14.358,-12.775 -17.573,-15.456 l 0.464,-0.532 18.385,14.198 -10.564,-15.466 h 6.667 c 4.457,6.354 10.475,12.557 16.966,17.492 4.808,3.678 8.843,5.874 10.792,5.874 0.54,0 1.373,-0.492 1.373,-1.144 0,-1.058 -1.049,-2.437 -4.202,-6.054 -7.661,-8.46 -8.89,-10.009 -8.89,-12.636 0,-2.759 1.942,-4.28 5.466,-4.28 5.386,0 13.076,3.906 22.236,11.295 l 0.545,-0.572 c -2.057,-2.322 -3.036,-3.85 -3.036,-6.258 0,-2.963 2.299,-4.465 6.835,-4.465 6.445,0 16.221,4.647 23.775,11.304 l 4.84,5.934 C -0.097,-2.535 0,-1.893 0,0"
             style="fill:#ffffff;fill-opacity:1;fill-rule:nonzero;stroke:none"
             id="path22"
             inkscape:connector-curvature="0" /></g><g
           id="g24"
           transform="translate(422.3711,78.6751)"
           style="fill:#ffffff"><path
             d="m 0,0 c 2.846,0 5.075,1.96 5.075,4.465 0,1.951 -0.933,2.782 -3.121,2.782 -3.055,0 -5.272,-1.877 -5.272,-4.465 C -3.318,0.884 -2.264,0 0,0"
             style="fill:#ffffff;fill-opacity:1;fill-rule:nonzero;stroke:none"
             id="path26"
             inkscape:connector-curvature="0" /></g><g
           id="g28"
           transform="translate(643.2666,51.387)"
           style="fill:#ffffff"><path
             d="m 0,0 c -2.506,-0.921 -3.938,-1.332 -5.804,-1.332 -3.569,0 -6.063,0.931 -6.063,2.267 0,1.527 1.453,1.703 2.546,1.703 1.982,0 8.987,-1.806 9.284,-1.883 L 1.19,0.437 Z m -22.2,13.366 -0.08,-0.126 c -5.115,-7.903 -12.076,-13.638 -16.552,-13.638 -2.165,0 -3.132,0.93 -3.132,3.014 0,2.282 1.512,5.655 4.371,9.758 2.433,3.296 9.366,9.328 13.417,9.328 1.432,0 2.183,-0.39 2.875,-1.493 l 0.145,-0.229 c 0,0 1.803,-3.074 -1.044,-6.614 M -293.153,0 c -2.506,-0.921 -3.937,-1.332 -5.804,-1.332 -3.569,0 -6.063,0.931 -6.063,2.267 0,1.527 1.454,1.703 2.546,1.703 1.982,0 8.987,-1.806 9.284,-1.883 l 1.228,-0.318 z m -28.997,10.875 c 3.566,5.206 9.413,10.827 12.638,10.827 1.581,0 1.763,-0.971 1.763,-1.703 0,-3.735 -9.74,-8.039 -13.928,-9.715 l -1.211,-0.485 z m 181.169,0 c 3.566,5.206 9.413,10.827 12.637,10.827 1.581,0 1.764,-0.971 1.764,-1.703 0,-3.735 -9.741,-8.039 -13.929,-9.715 l -1.211,-0.485 z m 169.813,0.581 -1.078,1.419 C 20.637,6.45 17.665,4.697 10.527,2.61 l -1.146,-0.334 0.72,0.953 c 2.393,3.171 3.242,5.502 3.242,8.919 0,2.951 -0.702,5.576 -2.501,9.363 l -0.143,0.3 0.269,0.191 c 3.745,2.687 5.891,5.021 5.891,6.407 0,0.884 -0.364,1.475 -2.143,1.475 -4.708,0 -7.254,-2.447 -8.013,-7.699 L 6.683,22.043 6.578,21.946 C 3.362,19.043 -0.766,15.654 -4.491,12.872 l 1.076,-1.416 c 3.397,2.307 7.312,5.272 9.466,7.157 L 6.756,19.232 6.708,18.295 C 6.126,7.177 5.942,5.254 2.862,2.508 L 2.74,2.396 2.577,2.406 C 1.209,2.489 -1.028,2.987 -3.396,3.513 -5.98,4.085 -8.909,4.737 -11.138,4.941 l -1.583,0.142 1.466,0.616 c 1.923,0.804 4.081,2.507 7.84,5.757 l -1.076,1.416 c -4.6,-4.211 -6.979,-5.979 -9.524,-5.979 -1.941,0 -3.521,1.434 -3.521,3.2 0,0.838 0.228,1.56 0.422,2.018 l 0.561,1.448 c 0.862,2.198 0.971,2.479 0.971,3.821 0,4.143 -2.634,6.52 -7.226,6.52 -4.056,0 -10.403,-2.599 -15.794,-6.467 -1.791,-1.246 -3.479,-2.678 -5.02,-4.264 l -0.323,-0.334 -0.024,0.034 c -7.507,-6.904 -17.447,-12.893 -21.444,-12.893 -2.265,0 -2.74,1.128 -2.74,2.078 0,0.843 0.746,2.121 2.216,4.331 1.181,1.837 9.912,13.333 16.286,21.73 2.106,2.774 3.964,5.222 5.223,6.889 l 0.117,0.157 h 1.567 c 3.503,0 7.123,0 13.79,0.538 l 0.488,1.286 h -10.76 l -3.31,0.242 14.331,18.341 c 0.665,0.872 1.423,1.976 1.483,2.226 -0.03,0.019 -0.245,0.127 -1.365,0.127 -3.624,0 -4.854,-0.647 -10.831,-8.076 l -10.28,-12.674 h -1.948 c -0.491,0 -1.157,-0.025 -2.01,-0.056 -1.535,-0.055 -3.638,-0.13 -6.395,-0.13 -2.946,0 -4.489,-0.148 -6.122,-0.305 -0.905,-0.087 -1.841,-0.177 -3.053,-0.244 l -0.969,-1.275 h 18.952 l -0.48,-0.634 c -7.701,-10.2 -10.585,-13.499 -13.311,-16.476 -0.57,-0.446 -1.161,-0.965 -1.787,-1.515 -0.549,-0.482 -1.14,-0.999 -1.773,-1.518 -1.055,-0.943 -1.814,-1.676 -2.442,-2.286 -0.168,-0.144 -15.093,-12.756 -20.284,-12.756 -1.389,0 -2.154,0.739 -2.154,2.078 0,1.048 1.045,2.591 3.991,6.409 l 5.081,6.543 c 1.235,1.774 2.067,3.31 2.067,4.993 0,2.362 -1.709,3.716 -4.686,3.716 -4.082,0 -10.609,-4.746 -18.713,-10.948 l -3.651,-2.792 7.978,12.992 h -5.544 c -1.961,-2.6 -3.465,-4.017 -7.747,-7.934 -0.823,-0.788 -1.463,-1.397 -2.042,-1.941 -8.639,-7.848 -17.9,-13.116 -23.047,-13.116 -3.204,0 -4.695,1.314 -4.695,4.133 0,0.7 0.19,1.197 0.374,1.683 0.082,0.213 0.165,0.43 0.225,0.661 l 0.048,0.18 0.167,0.08 c 17.69,8.37 21.268,10.825 21.268,14.594 0,0.596 0,2.408 -3.904,2.408 -5.986,0 -14.96,-4.381 -20.431,-9.974 -0.11,-0.118 -0.215,-0.238 -0.319,-0.356 l -0.533,-0.593 -0.064,0.083 c -3.931,-3.633 -16.086,-12.899 -20.671,-12.899 -1.214,0 -2.156,1.116 -2.156,2.078 0,1.45 1.526,3.466 5.174,7.732 5.525,6.376 6.356,7.715 6.356,10.213 0,2.257 -1.84,3.716 -4.686,3.716 -4.109,0 -9.998,-3.373 -19.093,-10.936 l -4.226,-3.595 1.892,2.633 c 4.358,6.064 4.813,7.434 4.813,9.116 0,1.845 -1.248,2.782 -3.709,2.782 -4.277,0 -9.63,-3.067 -19.093,-10.936 l -3.652,-3.107 8.162,13.295 h -5.743 c -2.289,-2.915 -3.155,-3.914 -7.748,-7.94 -0.827,-0.792 -1.474,-1.407 -2.058,-1.954 -7.397,-6.855 -17.44,-13.097 -21.07,-13.097 -1.572,0 -2.546,1.079 -2.546,2.078 0,0.664 0.434,1.681 0.853,2.281 l 14.75,18.632 h -7.21 c -2.896,-3.315 -4.334,-4.678 -7.926,-7.937 -1.197,-1.07 -1.99,-1.811 -2.67,-2.449 -0.36,-0.337 -0.688,-0.643 -1.025,-0.949 -7.498,-6.539 -16.29,-11.656 -20.023,-11.656 -2.265,0 -2.741,1.128 -2.741,2.078 0,0.843 0.747,2.121 2.217,4.331 1.181,1.837 9.911,13.333 16.285,21.73 2.107,2.774 3.965,5.222 5.224,6.889 l 0.117,0.157 h 1.566 c 3.503,0 7.124,0 13.79,0.538 l 0.489,1.286 h -10.76 l -3.31,0.242 14.331,18.341 c 0.665,0.872 1.422,1.976 1.482,2.226 -0.029,0.019 -0.244,0.127 -1.365,0.127 -3.623,0 -4.854,-0.647 -10.83,-8.076 l -10.281,-12.674 h -1.948 c -0.49,0 -1.157,-0.025 -2.01,-0.056 -1.535,-0.055 -3.637,-0.13 -6.394,-0.13 -2.947,0 -4.489,-0.148 -6.122,-0.305 -0.906,-0.087 -1.841,-0.177 -3.053,-0.244 l -0.969,-1.275 h 18.951 l -0.479,-0.634 c -7.702,-10.2 -10.585,-13.499 -13.312,-16.476 -0.569,-0.446 -1.161,-0.965 -1.787,-1.515 -0.549,-0.482 -1.139,-0.999 -1.772,-1.518 -1.104,-0.987 -1.878,-1.738 -2.561,-2.4 l -0.072,-0.067 c -6.823,-6.119 -9.816,-7.882 -16.855,-9.941 l -1.147,-0.334 0.72,0.953 c 2.393,3.171 3.242,5.502 3.242,8.919 0,2.951 -0.702,5.576 -2.501,9.363 l -0.143,0.3 0.269,0.191 c 3.745,2.687 5.892,5.021 5.892,6.407 0,0.884 -0.365,1.475 -2.144,1.475 -4.708,0 -7.254,-2.447 -8.013,-7.699 l -0.02,-0.142 -0.105,-0.097 c -3.216,-2.903 -7.345,-6.292 -11.071,-9.074 l 1.072,-1.407 c 3.398,2.306 7.318,5.263 9.472,7.148 l 0.705,0.619 -0.048,-0.937 C -287.026,7.177 -287.21,5.254 -290.29,2.508 l -0.122,-0.112 -0.164,0.01 c -1.37,0.083 -3.611,0.581 -5.984,1.11 -2.539,0.562 -5.416,1.203 -7.627,1.419 l -1.092,0.105 0.91,0.615 c 3.285,2.224 6.008,4.348 7.795,5.81 l -1.072,1.407 c -3.387,-3.052 -7.055,-5.841 -10.633,-8.079 l -0.128,-0.053 c -1.738,-0.371 -3.031,-1.097 -3.644,-2.05 l -0.057,-0.089 -0.096,-0.05 c -3.373,-1.709 -6.15,-2.575 -8.252,-2.575 -3.203,0 -4.695,1.314 -4.695,4.133 0,0.7 0.19,1.197 0.374,1.683 0.082,0.213 0.165,0.43 0.226,0.661 l 0.048,0.18 0.167,0.08 c 17.69,8.37 21.267,10.825 21.267,14.594 0,0.596 0,2.408 -3.903,2.408 -5.985,0 -14.961,-4.381 -20.432,-9.974 -3.048,-3.21 -4.8,-6.215 -5.35,-9.177 l -0.037,-0.201 -0.184,-0.087 c -4.576,-2.148 -8.919,-4.035 -9.761,-4.396 l -0.617,-1.453 c 1.866,0.535 5.245,1.92 9.878,4.056 l 0.523,0.242 0.037,-0.576 c 0.22,-3.398 2.768,-5.12 7.574,-5.12 3.484,0 7.72,1.234 12.59,3.667 l 0.366,0.183 0.17,-0.375 c 1.01,-2.207 5.558,-3.475 12.478,-3.475 4.239,0 7.986,0.563 12.496,3.305 l 0.168,0.056 c 9.99,0.927 15.2,4.678 19.678,8.438 l 2.205,1.852 -1.623,-2.378 c -2.77,-4.06 -3.214,-5.25 -3.214,-6.993 0,-2.959 1.747,-4.28 5.663,-4.28 6.856,0 19.816,9.378 23.625,12.253 l 1.898,1.435 -2.721,-4.026 c -1.663,-2.297 -2.668,-3.799 -2.668,-5.382 0,-2.722 1.922,-4.28 5.272,-4.28 9.161,0 21.5,10.432 26.145,14.359 l 2.091,1.166 -10.091,-14.777 h 6.67 c 4.745,6.478 10.831,12.683 17.158,17.492 4.757,3.793 8.723,6.059 10.597,6.059 0.716,0 1.178,-0.448 1.178,-1.143 0,-0.761 -4.454,-7.146 -7.108,-10.884 l -7.973,-11.524 h 6.472 c 4.531,6.178 11.006,12.705 17.354,17.492 5.476,4.189 8.684,6.059 10.4,6.059 0.712,0 1.373,-0.139 1.373,-1.143 0,-1.336 -1.34,-3.325 -4.216,-6.258 -7.314,-7.941 -8.486,-10.022 -8.486,-12.618 0,-2.681 1.897,-4.28 5.076,-4.28 4.139,0 11.353,3.612 20.859,10.442 l 1.118,0.803 L -150.862,7 c -0.616,-1.509 -0.928,-2.983 -0.928,-4.384 0,-3.707 2.563,-5.587 7.617,-5.587 9.99,0 23.359,10.024 28.641,14.334 l 2.137,1.188 -10.091,-14.774 h 6.666 c 4.457,6.354 10.475,12.557 16.966,17.492 4.808,3.678 8.843,5.874 10.792,5.874 0.541,0 1.374,-0.492 1.374,-1.144 0,-1.055 -1.05,-2.437 -4.203,-6.054 -7.661,-8.46 -8.89,-10.008 -8.89,-12.636 0,-2.759 1.942,-4.28 5.467,-4.28 5.624,0 13.397,4.035 23.101,11.993 l 2.15,1.763 -1.574,-2.291 c -2.884,-4.208 -3.346,-5.43 -3.346,-7.185 0,-2.959 1.747,-4.28 5.662,-4.28 5.581,0 15.195,6.215 20.428,9.919 l 1.125,0.797 -0.531,-1.27 c -0.588,-1.407 -0.886,-2.705 -0.886,-3.859 0,-3.899 2.364,-5.961 6.834,-5.961 7.272,0 16.401,5.754 21.805,11.1 l 0.32,0.318 0.274,-0.361 c 1.105,-1.453 2.196,-2.198 3.645,-2.486 l 1.465,-0.294 -1.419,-0.473 c -1.92,-0.634 -3.022,-1.716 -3.022,-2.965 0,-2.796 4.748,-4.465 12.698,-4.465 4.239,0 7.986,0.563 12.496,3.305 L 6.08,0.39 c 11.203,1.039 16.398,5.549 21.896,10.327 z"
             style="fill:#ffffff;fill-opacity:1;fill-rule:nonzero;stroke:none"
             id="path30"
             inkscape:connector-curvature="0" /></g><g
           id="g32"
           transform="translate(220.0977,115.223)"
           style="fill:#ffffff"><path
             d="m 0,0 c 4.525,1.741 9.553,3.441 14.201,4.808 0.817,0.235 1.705,0.009 2.299,-0.594 0.566,-0.575 0.762,-1.369 0.527,-2.127 l -0.753,-2.412 c -0.879,-2.804 -1.419,-3.79 -2.498,-5.757 -0.434,-0.795 -0.96,-1.753 -1.639,-3.073 -2.324,-4.527 -4.831,-8.896 -7.45,-12.983 -0.922,-1.441 -1.765,-2.829 -2.575,-4.165 -1.489,-2.458 -2.896,-4.777 -4.488,-6.88 -0.92,-1.214 -1.714,-2.355 -2.426,-3.373 -1.192,-1.707 -2.133,-3.057 -3.067,-3.926 l -0.335,-0.316 h -0.837 c -3.696,0.254 -10.351,1.073 -20.344,5.08 -9.993,4.007 -2.721,13.11 -2.721,13.11 0,0 14.495,15.831 32.106,22.608 m 0.228,-42.322 c 1.49,1.855 3.005,3.905 4.503,6.091 1.512,2.213 3.125,4.545 4.845,6.997 1.69,2.693 3.477,5.584 5.342,8.638 1.853,3.037 3.702,6.321 5.497,9.768 1.114,2.081 2.099,3.895 2.959,5.451 0.842,1.53 1.468,2.768 1.857,3.673 0.477,0.893 0.75,2.068 0.845,3.55 0.088,1.413 -0.306,2.672 -1.201,3.846 L 24.712,5.905 C 24.418,6.119 24.14,6.329 23.876,6.542 23.588,6.771 23.228,6.966 22.806,7.124 L 22.291,7.315 V 7.473 L 22.058,7.618 C 20.649,8.268 19.121,8.599 17.582,8.556 15.577,8.5 14.773,8.416 14.452,8.357 11.176,7.711 7.482,6.79 3.485,5.624 -0.501,4.462 -4.788,2.789 -9.254,0.655 -16,-2.492 -28.133,-10.729 -32.287,-14.835 c -4.098,-4.054 -6.518,-8.135 -7.191,-12.136 -0.67,-3.976 0.568,-7.567 4.206,-10.725 4.159,-3.612 14.128,-4.755 24.369,-5.519 l 2.015,-0.229 -0.816,-0.947 c -10.923,-12.661 -25.86,-21.773 -29.571,-21.773 -0.058,0 -0.116,0 -0.17,0.007 -1.023,0.093 -1.413,0.679 -1.554,1.023 -0.162,0.396 -0.156,0.878 -0.032,1.406 -1.053,-1.585 -0.823,-2.448 -0.524,-3.701 0.307,-1.301 1.772,-2.161 4.254,-2.275 9.279,-0.448 16.729,6.753 16.821,6.827 2.708,2.251 14.187,12.634 17.847,16.903 l 0.201,0.17 c 0.019,0.043 -0.625,-0.658 0.064,0.127 v 0.034 l 0.983,1.268 c 0,0 1.686,-0.28 6.085,0.247 4.539,0.545 -4.472,1.806 -4.472,1.806"
             style="fill:#ffffff;fill-opacity:1;fill-rule:nonzero;stroke:none"
             id="path34"
             inkscape:connector-curvature="0" /></g><g
           id="g36"
           transform="translate(146.7871,145.3021)"
           style="fill:#ffffff"><path
             d="m 0,0 v 5.668 c 9.881,0.484 11.014,1.133 11.014,8.909 v 74.67 H 10.526 L -18.464,2.589 h -8.425 l -29.965,86.658 h -0.323 V 37.902 c 0,-12.15 0,-18.14 0.649,-23.49 0.323,-5.345 1.94,-7.772 5.83,-8.095 l 7.45,-0.649 V 0 h -33.203 v 5.668 l 4.858,0.649 c 3.238,0.484 4.535,2.75 5.023,8.095 0.484,5.185 0.646,11.179 0.646,23.49 v 51.667 c 0,7.615 -1.134,8.425 -11.014,8.909 v 5.668 h 36.77 c 1.943,-6.475 5.019,-15.384 7.45,-22.188 l 16.52,-46.163 h 0.488 L -3.886,70.944 6.966,104.146 H 43.249 V 98.478 C 33.368,97.994 32.231,97.184 32.231,89.569 V 14.577 c 0,-7.776 1.137,-8.425 11.018,-8.909 V 0 Z"
             style="fill:#ffffff;fill-opacity:1;fill-rule:nonzero;stroke:none"
             id="path38"
             inkscape:connector-curvature="0" /></g><g
           id="g40"
           transform="translate(232.9385,180.3675)"
           style="fill:#ffffff"><path
             d="m 0,0 c -0.793,3.616 -8.26,1.217 -12.473,-1.214 -4.209,-2.431 -6.479,-5.668 -6.479,-12.469 0,-7.615 4.858,-11.989 10.365,-11.989 3.729,0 8.264,1.943 8.587,9.716 z m -35.311,19.271 c -1.249,1.01 -1.796,2.708 -1.375,4.258 1.989,7.383 13.066,10.484 31.624,10.484 24.62,0 25.634,-8.503 25.634,-17.412 V -16.44 c 0,-8.425 2.592,-10.204 4.37,-10.688 1.61,-0.498 3.595,-0.712 5.241,-0.712 0.508,0 0.982,0.025 1.399,0.064 l 0.491,-4.862 c -4.535,-1.782 -13.445,-4.048 -20.572,-4.048 -6.805,0 -9.07,3.564 -10.852,8.099 -4.862,-3.237 -11.018,-8.099 -19.923,-8.099 -14.094,0 -21.059,9.72 -21.059,20.569 0,8.102 3.532,20.434 14.545,24.325 9.071,3.24 21.656,2.546 25.788,1.739 v 9.573 c 0,2.844 -2.571,8.302 -8.229,8.302 -3.886,0 -6.089,-0.239 -12.683,-6.85 -6.63,-6.23 -11.852,-3.757 -14.399,-1.701"
             style="fill:#ffffff;fill-opacity:1;fill-rule:nonzero;stroke:none"
             id="path42"
             inkscape:connector-curvature="0" /></g><g
           id="g44"
           transform="translate(488.3896,180.3675)"
           style="fill:#ffffff"><path
             d="m 0,0 c -0.793,3.616 -8.257,1.217 -12.474,-1.214 -4.209,-2.431 -6.474,-5.668 -6.474,-12.469 0,-7.615 4.857,-11.989 10.364,-11.989 3.726,0 8.261,1.943 8.584,9.716 z m -35.308,19.271 c -1.252,1.01 -1.796,2.708 -1.379,4.258 1.99,7.383 13.07,10.484 31.625,10.484 24.62,0 25.633,-8.503 25.633,-17.412 V -16.44 c 0,-8.425 2.592,-10.204 4.374,-10.688 1.611,-0.498 3.596,-0.712 5.237,-0.712 0.508,0 0.986,0.025 1.403,0.064 l 0.491,-4.862 c -4.539,-1.782 -13.448,-4.048 -20.575,-4.048 -6.802,0 -9.07,3.564 -10.849,8.099 -4.862,-3.237 -11.017,-8.099 -19.923,-8.099 -14.097,0 -21.059,9.72 -21.059,20.569 0,8.102 3.531,20.434 14.546,24.325 9.07,3.24 21.655,2.546 25.784,1.739 v 9.573 c 0,2.844 -2.568,8.302 -8.226,8.302 -3.886,0 -6.088,-0.239 -12.686,-6.85 -6.63,-6.23 -11.849,-3.757 -14.396,-1.701"
             style="fill:#ffffff;fill-opacity:1;fill-rule:nonzero;stroke:none"
             id="path46"
             inkscape:connector-curvature="0" /></g><g
           id="g48"
           transform="translate(659.8691,180.3675)"
           style="fill:#ffffff"><path
             d="m 0,0 c -0.792,3.616 -8.26,1.217 -12.473,-1.214 -4.209,-2.431 -6.478,-5.668 -6.478,-12.469 0,-7.615 4.858,-11.989 10.368,-11.989 3.726,0 8.261,1.943 8.583,9.716 z m -35.307,19.271 c -1.252,1.01 -1.796,2.708 -1.379,4.258 1.99,7.383 13.066,10.484 31.624,10.484 24.621,0 25.634,-8.503 25.634,-17.412 V -16.44 c 0,-8.425 2.592,-10.204 4.37,-10.688 1.611,-0.498 3.599,-0.712 5.241,-0.712 0.508,0 0.982,0.025 1.403,0.064 l 0.487,-4.862 c -4.535,-1.782 -13.444,-4.048 -20.571,-4.048 -6.805,0 -9.071,3.564 -10.853,8.099 -4.858,-3.237 -11.013,-8.099 -19.922,-8.099 -14.094,0 -21.057,9.72 -21.057,20.569 0,8.102 3.532,20.434 14.543,24.325 9.07,3.24 21.655,2.546 25.787,1.739 v 9.573 c 0,2.844 -2.57,8.302 -8.229,8.302 -3.886,0 -6.088,-0.239 -12.683,-6.85 -6.629,-6.23 -11.852,-3.757 -14.395,-1.701"
             style="fill:#ffffff;fill-opacity:1;fill-rule:nonzero;stroke:none"
             id="path50"
             inkscape:connector-curvature="0" /></g><g
           id="g52"
           transform="translate(346.7939,157.6097)"
           style="fill:#ffffff"><path
             d="m 0,0 c 0,-5.991 0.975,-6.479 8.909,-6.963 v -5.346 h -37.415 v 5.346 l 2.915,0.322 c 2.914,0.324 4.535,0.972 4.535,5.672 v 36.28 c -0.323,8.747 -3.886,13.125 -11.014,13.125 -5.829,0 -9.719,-3.406 -11.498,-6.97 -0.974,-2.105 -1.301,-5.342 -1.301,-8.583 V -0.969 c 0,-4.7 1.463,-5.348 4.377,-5.672 l 2.915,-0.322 v -5.346 h -37.415 v 5.346 c 7.934,0.484 9.071,0.972 9.071,6.963 v 42.115 c 0,5.668 -1.137,6.966 -3.403,7.289 l -4.858,0.806 v 5.027 l 27.373,4.209 1.94,-9.878 c 9.074,5.504 16.202,9.878 23.813,9.878 14.255,0 20.894,-8.587 21.056,-22.028 z"
             style="fill:#ffffff;fill-opacity:1;fill-rule:nonzero;stroke:none"
             id="path54"
             inkscape:connector-curvature="0" /></g><g
           id="g56"
           transform="translate(436.3516,157.6097)"
           style="fill:#ffffff"><path
             d="m 0,0 c 0,-5.991 0.972,-6.479 8.909,-6.963 v -5.346 h -37.415 v 5.346 l 2.915,0.322 c 2.918,0.324 4.538,0.972 4.538,5.672 v 36.28 c -0.326,8.747 -3.889,13.125 -11.017,13.125 -5.829,0 -9.716,-3.406 -11.501,-6.97 -0.971,-2.105 -1.294,-5.342 -1.294,-8.583 V -0.969 c 0,-4.7 1.459,-5.348 4.373,-5.672 l 2.915,-0.322 v -5.346 h -37.415 v 5.346 c 7.934,0.484 9.071,0.972 9.071,6.963 v 87.794 c 0,5.668 -1.137,7.123 -3.403,7.446 l -4.858,0.814 v 5.181 l 28.345,3.886 0.972,-0.807 V 49.568 c 8.583,5.504 15.387,9.878 23.486,9.878 14.581,0 21.218,-8.587 21.379,-22.028 z"
             style="fill:#ffffff;fill-opacity:1;fill-rule:nonzero;stroke:none"
             id="path58"
             inkscape:connector-curvature="0" /></g><g
           id="g60"
           transform="translate(549.6172,208.3079)"
           style="fill:#ffffff"><path
             d="m 0,0 v -40.817 c 0,-9.233 3.564,-13.28 8.909,-13.28 3.076,0 5.991,0.649 7.939,1.455 l 1.455,-4.374 c -7.773,-5.022 -16.356,-7.611 -22.028,-7.611 -7.937,0 -17.331,5.346 -17.331,18.303 V 0 h -8.098 v 6.966 h 8.748 c 6.639,6.152 10.525,14.9 12.307,27.212 H 0 V 6.966 H 14.413 V 0 Z"
             style="fill:#ffffff;fill-opacity:1;fill-rule:nonzero;stroke:none"
             id="path62"
             inkscape:connector-curvature="0" /></g><g
           id="g64"
           transform="translate(597.0762,208.3079)"
           style="fill:#ffffff"><path
             d="m 0,0 v -40.817 c 0,-9.233 3.567,-13.28 8.909,-13.28 3.079,0 5.998,0.649 7.942,1.455 l 1.455,-4.374 c -7.777,-5.022 -16.36,-7.611 -22.032,-7.611 -7.933,0 -17.33,5.346 -17.33,18.303 V 0 h -8.102 v 6.966 h 8.755 c 6.635,6.152 10.525,14.9 12.303,27.212 H 0 V 6.966 H 14.416 V 0 Z"
             style="fill:#ffffff;fill-opacity:1;fill-rule:nonzero;stroke:none"
             id="path66"
             inkscape:connector-curvature="0" /></g><g
           id="g68"
           transform="translate(771.6318,157.6097)"
           style="fill:#ffffff"><path
             d="m 0,0 c 0,-5.991 0.972,-6.479 8.909,-6.963 v -5.346 h -37.415 v 5.346 l 2.918,0.322 c 2.911,0.324 4.532,0.972 4.532,5.672 v 36.28 c -0.326,8.747 -3.886,13.125 -11.013,13.125 -5.833,0 -9.716,-3.406 -11.502,-6.97 -0.971,-2.105 -1.294,-5.342 -1.294,-8.583 V -0.969 c 0,-4.7 1.459,-5.348 4.37,-5.672 l 2.919,-0.322 v -5.346 h -37.415 v 5.346 c 7.937,0.484 9.066,0.972 9.066,6.963 v 42.115 c 0,5.668 -1.129,6.966 -3.398,7.289 l -4.859,0.806 v 5.027 l 27.37,4.209 1.947,-9.878 c 9.07,5.504 16.198,9.878 23.809,9.878 14.255,0 20.895,-8.587 21.056,-22.028 z"
             style="fill:#ffffff;fill-opacity:1;fill-rule:nonzero;stroke:none"
             id="path70"
             inkscape:connector-curvature="0" /></g><g
           id="g72"
           transform="translate(614.542,71.554)"
           style="fill:#ffffff"><path
             d="m 0,0 c -1.912,-0.886 -5.329,-7.314 5.479,-9.702 3.764,-1.709 2.418,2.346 2.418,2.346 0,0 -8.751,-2.159 -4.976,9.173 C 3.986,5.017 0,0 0,0"
             style="fill:#ffffff;fill-opacity:1;fill-rule:nonzero;stroke:none"
             id="path74"
             inkscape:connector-curvature="0" /></g></g></g></g></svg>